<svg xmlns="http://www.w3.org/2000/svg" viewBox="0 0 64 64">
  <defs>
    <linearGradient id="bg" x1="0%" y1="0%" x2="100%" y2="100%">
      <stop offset="0%" style="stop-color:#0d4a4a"/>
      <stop offset="100%" style="stop-color:#083535"/>
    </linearGradient>
  </defs>
  <!-- Background circle -->
  <circle cx="32" cy="32" r="30" fill="url(#bg)"/>
  <!-- Crescent moon -->
  <path d="M38 12c-11 0-20 9-20 20s9 20 20 20c3 0 5.8-.7 8.3-1.8C41.5 47 38 41 38 34s3.5-13 8.3-16.2C43.8 12.7 41 12 38 12z" fill="#d4a853"/>
  <!-- Star -->
  <polygon points="26,22 27.5,26 32,26 28.5,29 30,33 26,30.5 22,33 23.5,29 20,26 24.5,26" fill="#d4a853"/>
</svg>
